<?xml version="1.0" encoding="utf-8"?>
<!-- Generator: Adobe Illustrator 22.1.0, SVG Export Plug-In . SVG Version: 6.00 Build 0)  -->
<svg version="1.1" id="Layer_1" xmlns="http://www.w3.org/2000/svg" xmlns:xlink="http://www.w3.org/1999/xlink" x="0px" y="0px"
	 viewBox="0 0 1920 1080" style="enable-background:new 0 0 1920 1080;" xml:space="preserve">
<style type="text/css">
	.st0{fill:#92278F;}
	.st1{opacity:0.65;}
	.st2{opacity:0.18;}
</style>
<g>
	<path class="st0" d="M1626.5,517c30.6,0,60.2,6,88.2,17.8c27,11.4,51.2,27.7,72,48.5c20.8,20.8,37.1,45,48.5,72
		c11.8,27.9,17.8,57.6,17.8,88.2s-6,60.2-17.8,88.2c-11.4,27-27.7,51.2-48.5,72c-20.8,20.8-45,37.1-72,48.5
		c-27.9,11.8-57.6,17.8-88.2,17.8s-60.2-6-88.2-17.8c-27-11.4-51.2-27.7-72-48.5c-20.8-20.8-37.1-45-48.5-72
		c-11.8-27.9-17.8-57.6-17.8-88.2s6-60.2,17.8-88.2c11.4-27,27.7-51.2,48.5-72c20.8-20.8,45-37.1,72-48.5
		C1566.3,523,1595.9,517,1626.5,517 M1626.5,513c-127.3,0-230.5,103.2-230.5,230.5S1499.2,974,1626.5,974S1857,870.8,1857,743.5
		S1753.8,513,1626.5,513L1626.5,513z"/>
</g>
<g>
	<path class="st0" d="M938.5,21c30.6,0,60.2,6,88.2,17.8c27,11.4,51.2,27.7,72,48.5c20.8,20.8,37.1,45,48.5,72
		c11.8,27.9,17.8,57.6,17.8,88.2s-6,60.2-17.8,88.2c-11.4,27-27.7,51.2-48.5,72c-20.8,20.8-45,37.1-72,48.5
		C998.7,468,969.1,474,938.5,474s-60.2-6-88.2-17.8c-27-11.4-51.2-27.7-72-48.5c-20.8-20.8-37.1-45-48.5-72
		C718,307.7,712,278.1,712,247.5s6-60.2,17.8-88.2c11.4-27,27.7-51.2,48.5-72c20.8-20.8,45-37.1,72-48.5C878.3,27,907.9,21,938.5,21
		 M938.5,17C811.2,17,708,120.2,708,247.5S811.2,478,938.5,478S1169,374.8,1169,247.5S1065.8,17,938.5,17L938.5,17z"/>
</g>
<g class="st1">
	<path class="st0" d="M1320.5,404c33,0,64,12.8,87.3,36.2c23.3,23.3,36.2,54.3,36.2,87.3s-12.8,64-36.2,87.3
		c-23.3,23.3-54.3,36.2-87.3,36.2s-64-12.8-87.3-36.2c-23.3-23.3-36.2-54.3-36.2-87.3s12.8-64,36.2-87.3
		C1256.5,416.8,1287.5,404,1320.5,404 M1320.5,400c-70.4,0-127.5,57.1-127.5,127.5S1250.1,655,1320.5,655S1448,597.9,1448,527.5
		S1390.9,400,1320.5,400L1320.5,400z"/>
</g>
<g class="st2">
	<path class="st0" d="M1203.5,633c26.9,0,53.1,5.3,77.7,15.7c23.8,10,45.1,24.4,63.4,42.8c18.3,18.3,32.7,39.7,42.8,63.4
		c10.4,24.6,15.7,50.7,15.7,77.7s-5.3,53.1-15.7,77.7c-10,23.8-24.4,45.1-42.8,63.4c-18.3,18.3-39.7,32.7-63.4,42.8
		c-24.6,10.4-50.7,15.7-77.7,15.7s-53.1-5.3-77.7-15.7c-23.8-10-45.1-24.4-63.4-42.8c-18.3-18.3-32.7-39.7-42.8-63.4
		c-10.4-24.6-15.7-50.7-15.7-77.7s5.3-53.1,15.7-77.7c10-23.8,24.4-45.1,42.8-63.4c18.3-18.3,39.7-32.7,63.4-42.8
		C1150.4,638.3,1176.6,633,1203.5,633 M1203.5,629c-112.4,0-203.5,91.1-203.5,203.5s91.1,203.5,203.5,203.5S1407,944.9,1407,832.5
		S1315.9,629,1203.5,629L1203.5,629z"/>
</g>
<g class="st1">
	<path class="st0" d="M71.5,232c33,0,64,12.8,87.3,36.2c23.3,23.3,36.2,54.3,36.2,87.3s-12.8,64-36.2,87.3
		c-23.3,23.3-54.3,36.2-87.3,36.2s-64-12.8-87.3-36.2C-39.2,419.5-52,388.5-52,355.5s12.8-64,36.2-87.3C7.5,244.8,38.5,232,71.5,232
		 M71.5,228C1.1,228-56,285.1-56,355.5S1.1,483,71.5,483S199,425.9,199,355.5S141.9,228,71.5,228L71.5,228z"/>
</g>
<g class="st2">
	<path class="st0" d="M-45.5,461c26.9,0,53.1,5.3,77.7,15.7c23.8,10,45.1,24.4,63.4,42.8c18.3,18.3,32.7,39.7,42.8,63.4
		c10.4,24.6,15.7,50.7,15.7,77.7s-5.3,53.1-15.7,77.7c-10,23.8-24.4,45.1-42.8,63.4c-18.3,18.3-39.7,32.7-63.4,42.8
		C7.6,854.7-18.6,860-45.5,860s-53.1-5.3-77.7-15.7c-23.8-10-45.1-24.4-63.4-42.8c-18.3-18.3-32.7-39.7-42.8-63.4
		c-10.4-24.6-15.7-50.7-15.7-77.7s5.3-53.1,15.7-77.7c10-23.8,24.4-45.1,42.8-63.4c18.3-18.3,39.7-32.7,63.4-42.8
		C-98.6,466.3-72.4,461-45.5,461 M-45.5,457C-157.9,457-249,548.1-249,660.5S-157.9,864-45.5,864S158,772.9,158,660.5
		S66.9,457-45.5,457L-45.5,457z"/>
</g>
<g class="st2">
	<path class="st0" d="M978,476c38.6,0,70,31.4,70,70s-31.4,70-70,70s-70-31.4-70-70S939.4,476,978,476 M978,472
		c-40.9,0-74,33.1-74,74s33.1,74,74,74s74-33.1,74-74S1018.9,472,978,472L978,472z"/>
</g>
<g>
	<path class="st0" d="M662.3,620.9c32.1,0,58.2,26.1,58.2,58.2s-26.1,58.2-58.2,58.2c-32.1,0-58.2-26.1-58.2-58.2
		S630.2,620.9,662.3,620.9 M662.3,616.9c-34.4,0-62.2,27.9-62.2,62.2s27.9,62.2,62.2,62.2c34.4,0,62.2-27.9,62.2-62.2
		S696.7,616.9,662.3,616.9L662.3,616.9z"/>
</g>
<g>
	<path class="st0" d="M476.7,487c32.1,0,58.2,26.1,58.2,58.2c0,32.1-26.1,58.2-58.2,58.2s-58.2-26.1-58.2-58.2
		C418.5,513.1,444.6,487,476.7,487 M476.7,483c-34.4,0-62.2,27.9-62.2,62.2c0,34.4,27.9,62.2,62.2,62.2s62.2-27.9,62.2-62.2
		C538.9,510.9,511,483,476.7,483L476.7,483z"/>
</g>
<g class="st1">
	<path class="st0" d="M579.8,590.4c16.8,0,30.4,13.6,30.4,30.4c0,16.8-13.6,30.4-30.4,30.4c-16.8,0-30.4-13.6-30.4-30.4
		C549.3,604,563,590.4,579.8,590.4 M579.8,586.4c-19,0-34.4,15.4-34.4,34.4s15.4,34.4,34.4,34.4s34.4-15.4,34.4-34.4
		S598.8,586.4,579.8,586.4L579.8,586.4z"/>
</g>
<g class="st2">
	<path class="st0" d="M548.2,652.2c28.1,0,50.9,22.8,50.9,50.9c0,28.1-22.8,50.9-50.9,50.9c-28.1,0-50.9-22.8-50.9-50.9
		C497.3,675,520.1,652.2,548.2,652.2 M548.2,648.2c-30.3,0-54.9,24.6-54.9,54.9c0,30.3,24.6,54.9,54.9,54.9
		c30.3,0,54.9-24.6,54.9-54.9C603.1,672.8,578.5,648.2,548.2,648.2L548.2,648.2z"/>
</g>
<g class="st2">
	<path class="st0" d="M487.3,609.8c8.8,0,16,7.2,16,16s-7.2,16-16,16s-16-7.2-16-16S478.5,609.8,487.3,609.8 M487.3,605.8
		c-11,0-20,8.9-20,20s8.9,20,20,20c11,0,20-8.9,20-20S498.4,605.8,487.3,605.8L487.3,605.8z"/>
</g>
</svg>
